<?xml version="1.0" encoding="UTF-8"?>
<!DOCTYPE svg PUBLIC "-//W3C//DTD SVG 1.1//EN" "http://www.w3.org/Graphics/SVG/1.1/DTD/svg11.dtd">
<svg xmlns="http://www.w3.org/2000/svg" xmlns:xlink="http://www.w3.org/1999/xlink" version="1.1" width="165px" height="166px" viewBox="-0.5 -0.5 165 166" style="background-color: rgb(255, 255, 255);"><defs><linearGradient x1="0%" y1="0%" x2="0%" y2="100%" id="mx-gradient-ffffff-1-ffffff-1-s-0"><stop offset="0%" style="stop-color: rgb(255, 255, 255); stop-opacity: 1;"/><stop offset="100%" style="stop-color: rgb(255, 255, 255); stop-opacity: 1;"/></linearGradient></defs><g><rect x="1" y="1" width="160" height="160" fill-opacity="0" fill="#000000" stroke="#000000" stroke-opacity="0" stroke-width="3" pointer-events="all" transform="translate(2,3)" opacity="0.25"/><rect x="1" y="1" width="160" height="160" fill-opacity="0" fill="url(#mx-gradient-ffffff-1-ffffff-1-s-0)" stroke="rgb(0, 0, 0)" stroke-opacity="0" stroke-width="3" pointer-events="all"/><rect x="41" y="41" width="90" height="90" fill="none" stroke="none" pointer-events="all"/><path d="M 107.8 116 L 107.8 105.55 L 98.07 91.11 L 62.32 91.11 L 47.12 113.64 C 46.58 114.67 47.53 116.04 48.63 116 Z M 48.65 120.09 C 44.73 120.09 41 116.09 43.36 111.75 L 69.64 72.73 C 70.32 71.84 70.78 70.8 70.72 69.47 L 70.72 52.65 C 70.67 49.36 69.31 47.55 67.32 46.11 C 66.51 45.51 65.89 44.69 66.13 43.11 C 66.38 42.05 67.23 41.09 68.7 41 L 91.81 41 C 93.11 41.05 94.32 41.98 94.46 43.35 C 94.65 44.82 93.92 45.55 93.4 45.98 C 92.74 46.44 92.18 46.95 91.68 47.51 C 90.56 48.69 89.77 50.65 89.69 52.84 L 89.69 69.84 C 89.75 70.95 90.02 71.58 90.36 72.13 L 107.8 98.02 L 107.8 73.73 L 106.7 73.71 C 105.7 73.67 104.97 72.78 104.91 71.73 C 104.87 70.91 105.49 69.73 106.7 69.64 L 129.22 69.64 C 130.27 69.82 131 70.67 130.96 71.71 C 130.96 72.76 130.15 73.67 129.11 73.73 L 128.08 73.73 L 128.08 84.64 L 119.39 84.64 L 119.39 87.36 L 128.08 87.36 L 128.08 98.27 L 119.39 98.27 L 119.39 101 L 128.08 101 L 128.08 111.91 L 119.39 111.91 L 119.39 114.64 L 128.08 114.64 L 128.08 120.31 C 127.91 126.42 123.26 131 118.04 131 C 112.67 131 108.79 126.76 108.02 122.38 C 107.88 121.69 107.79 120.91 107.79 120.09 Z" fill="#505050" stroke="none" pointer-events="all"/></g></svg>